<svg width="259" height="37" viewBox="0 0 259 37" fill="none" xmlns="http://www.w3.org/2000/svg">
<path d="M0 35.5273V4.33594C0 4.33594 0.403646 4.3099 1.21094 4.25781C2.03125 4.19271 3.09896 4.11458 4.41406 4.02344C5.74219 3.93229 7.1875 3.84766 8.75 3.76953C10.3255 3.67839 11.8815 3.60677 13.418 3.55469C14.9674 3.48958 16.3477 3.45703 17.5586 3.45703C20.0846 3.45703 22.2266 3.78906 23.9844 4.45312C25.7422 5.10417 27.1615 5.97005 28.2422 7.05078C29.3229 8.13151 30.1107 9.32292 30.6055 10.625C31.1133 11.9271 31.3672 13.2292 31.3672 14.5312C31.3672 16.8099 30.7878 18.7695 29.6289 20.4102C28.4701 22.0378 26.9922 23.3854 25.1953 24.4531L33.6719 35.5273H18.2422L12.7539 26.4844V35.5273H0ZM12.6758 20.8008C15.2018 19.8633 17.0117 18.8477 18.1055 17.7539C19.2122 16.6471 19.7656 15.4622 19.7656 14.1992C19.7656 13.1445 19.5703 12.4219 19.1797 12.0312C18.7891 11.6406 18.3008 11.4453 17.7148 11.4453C17.3372 11.4453 16.9466 11.5104 16.543 11.6406C16.1393 11.7578 15.7161 11.9076 15.2734 12.0898L12.6758 13.1641V20.8008ZM43.6523 0C45.5013 0 46.862 0.416667 47.7344 1.25C48.6198 2.08333 49.0625 3.04036 49.0625 4.12109C49.0625 4.92839 48.8086 5.72917 48.3008 6.52344C47.806 7.30469 47.0768 7.95573 46.1133 8.47656C45.1497 8.98438 43.9714 9.23828 42.5781 9.23828C40.5729 9.23828 39.1602 8.83464 38.3398 8.02734C37.5326 7.20703 37.1289 6.28255 37.1289 5.25391C37.1289 4.42057 37.3698 3.60677 37.8516 2.8125C38.3333 2.00521 39.056 1.33464 40.0195 0.800781C40.9961 0.266927 42.207 0 43.6523 0ZM48.7305 35.5273H37.4219V11.25H48.7305V35.5273ZM52.5586 24.6094C52.5586 22.1484 52.9688 20.026 53.7891 18.2422C54.6094 16.4453 55.7096 14.9674 57.0898 13.8086C58.4831 12.6367 60.026 11.7708 61.7188 11.2109C63.4245 10.651 65.1562 10.3711 66.9141 10.3711C67.8385 10.3711 68.75 10.4362 69.6484 10.5664C70.5599 10.6836 71.4323 10.8724 72.2656 11.1328V2.65625H83.6328V35.5273H76.3867L73.5938 31.4844C72.3698 33.099 70.931 34.2904 69.2773 35.0586C67.6367 35.8268 65.944 36.2109 64.1992 36.2109C62.7279 36.2109 61.2956 35.9505 59.9023 35.4297C58.5221 34.9089 57.2786 34.1471 56.1719 33.1445C55.0651 32.1419 54.1862 30.9245 53.5352 29.4922C52.8841 28.0599 52.5586 26.4323 52.5586 24.6094ZM66.6016 28.125C67.4219 28.125 68.1901 27.9753 68.9062 27.6758C69.6224 27.3763 70.2669 27.0247 70.8398 26.6211C71.4128 26.2174 71.888 25.8659 72.2656 25.5664V18.6133C71.8229 18.3398 71.3216 18.2031 70.7617 18.2031C70.0456 18.2031 69.3294 18.4245 68.6133 18.8672C67.8971 19.2969 67.2396 19.8763 66.6406 20.6055C66.0417 21.3216 65.5599 22.1029 65.1953 22.9492C64.8438 23.7956 64.668 24.6289 64.668 25.4492C64.668 26.0612 64.8112 26.6602 65.0977 27.2461C65.3971 27.832 65.8984 28.125 66.6016 28.125ZM100.078 36.25C98.5026 36.25 96.9661 36.0026 95.4688 35.5078C93.9714 35.013 92.6172 34.2773 91.4062 33.3008C90.1953 32.3112 89.2318 31.0938 88.5156 29.6484C87.7995 28.2031 87.4414 26.5234 87.4414 24.6094C87.4414 22.2266 87.8646 20.1432 88.7109 18.3594C89.5703 16.5625 90.7292 15.0716 92.1875 13.8867C93.6458 12.6888 95.2995 11.7904 97.1484 11.1914C98.9974 10.5924 100.918 10.293 102.91 10.293C105.436 10.293 107.487 10.6771 109.062 11.4453C110.651 12.2135 111.816 13.2031 112.559 14.4141C113.301 15.625 113.672 16.901 113.672 18.2422C113.672 19.6875 113.21 21.0872 112.285 22.4414C111.361 23.7956 110 24.9089 108.203 25.7812C106.419 26.6536 104.219 27.0898 101.602 27.0898C101.354 27.0898 101.022 27.0898 100.605 27.0898C100.202 27.0768 99.8503 27.0638 99.5508 27.0508C99.5508 27.8711 99.7461 28.4635 100.137 28.8281C100.527 29.1927 101.016 29.4206 101.602 29.5117C102.201 29.6029 102.799 29.6484 103.398 29.6484C103.932 29.6484 104.681 29.5638 105.645 29.3945C106.621 29.2122 107.676 28.8867 108.809 28.418C109.941 27.9492 111.016 27.2786 112.031 26.4062L113.242 32.4805C111.706 33.8086 109.759 34.7721 107.402 35.3711C105.059 35.957 102.617 36.25 100.078 36.25ZM99.5508 22.5977L103.828 21.6406L104.199 18.6523C104.199 18.5742 104.206 18.5026 104.219 18.4375C104.232 18.3594 104.238 18.2812 104.238 18.2031C104.238 17.0573 103.704 16.4844 102.637 16.4844C101.712 16.5625 101.068 16.8815 100.703 17.4414C100.339 17.9883 100.104 18.7109 100 19.6094C99.8958 20.4948 99.7461 21.4909 99.5508 22.5977ZM117.363 25.1758C117.441 25.1888 117.806 25.306 118.457 25.5273C119.121 25.7357 119.922 25.9766 120.859 26.25C121.797 26.5104 122.734 26.7448 123.672 26.9531C124.622 27.1484 125.43 27.2461 126.094 27.2461C126.667 27.2461 127.135 27.1615 127.5 26.9922C127.865 26.8229 128.047 26.5104 128.047 26.0547C128.047 25.5599 127.786 25.1107 127.266 24.707C126.745 24.3034 126.074 23.8867 125.254 23.457C124.447 23.0273 123.581 22.5391 122.656 21.9922C121.745 21.4453 120.879 20.7878 120.059 20.0195C119.251 19.2513 118.587 18.3333 118.066 17.2656C117.546 16.1849 117.285 14.8958 117.285 13.3984C117.285 11.5625 117.669 10.013 118.438 8.75C119.206 7.47396 120.234 6.45182 121.523 5.68359C122.826 4.90234 124.284 4.33594 125.898 3.98438C127.526 3.63281 129.193 3.45703 130.898 3.45703C132.344 3.45703 133.711 3.53516 135 3.69141C136.289 3.84766 137.376 4.01693 138.262 4.19922C139.16 4.38151 139.727 4.50521 139.961 4.57031V13.5352C139.961 13.5352 139.688 13.4766 139.141 13.3594C138.607 13.2422 137.93 13.112 137.109 12.9688C136.302 12.8255 135.462 12.6953 134.59 12.5781C133.73 12.4609 132.975 12.4023 132.324 12.4023C131.725 12.4023 131.276 12.5065 130.977 12.7148C130.677 12.9232 130.527 13.1706 130.527 13.457C130.527 13.6914 130.658 13.9518 130.918 14.2383C131.178 14.5117 131.491 14.7266 131.855 14.8828C133.223 15.4818 134.512 16.0938 135.723 16.7188C136.934 17.3438 138.001 18.0664 138.926 18.8867C139.85 19.707 140.573 20.7096 141.094 21.8945C141.628 23.0664 141.895 24.5052 141.895 26.2109C141.895 28.2422 141.38 30.013 140.352 31.5234C139.336 33.0339 137.865 34.2057 135.938 35.0391C134.023 35.8724 131.712 36.2891 129.004 36.2891C126.673 36.2891 124.753 36.1784 123.242 35.957C121.732 35.7357 120.547 35.4883 119.688 35.2148C118.828 34.9284 118.223 34.6745 117.871 34.4531C117.533 34.2318 117.363 34.1211 117.363 34.1211V25.1758ZM146.016 35.5273V2.65625H157.617V13.8477C158.464 12.7279 159.564 11.862 160.918 11.25C162.272 10.638 163.691 10.332 165.176 10.332C166.921 10.332 168.503 10.7422 169.922 11.5625C171.341 12.3698 172.467 13.5417 173.301 15.0781C174.147 16.6016 174.57 18.431 174.57 20.5664V35.5273H162.891V25C162.891 22.8385 162.546 21.1003 161.855 19.7852C161.165 18.4701 160.378 17.8125 159.492 17.8125C158.815 17.8125 158.333 18.0599 158.047 18.5547C157.76 19.0365 157.617 19.6419 157.617 20.3711V35.5273H146.016ZM178.418 24.4922C178.418 22.3568 178.776 20.4232 179.492 18.6914C180.221 16.9596 181.211 15.4688 182.461 14.2188C183.711 12.9688 185.13 12.0117 186.719 11.3477C188.307 10.6706 189.967 10.332 191.699 10.332C193.092 10.332 194.453 10.6771 195.781 11.3672C197.122 12.0443 198.19 13.0013 198.984 14.2383L201.777 11.25H208.184V35.5273H201.777L198.984 31.4844C197.982 32.9688 196.634 34.1341 194.941 34.9805C193.249 35.8268 191.504 36.25 189.707 36.25C187.728 36.25 185.879 35.8268 184.16 34.9805C182.441 34.1211 181.055 32.8255 180 31.0938C178.945 29.349 178.418 27.1484 178.418 24.4922ZM190.059 25.4492C190.059 26.0872 190.208 26.6927 190.508 27.2656C190.807 27.8385 191.296 28.125 191.973 28.125C192.624 28.125 193.457 27.9297 194.473 27.5391C195.488 27.1354 196.549 26.4648 197.656 25.5273V18.6133C197.201 18.3398 196.686 18.2031 196.113 18.2031C195.371 18.2031 194.642 18.431 193.926 18.8867C193.21 19.3294 192.559 19.9154 191.973 20.6445C191.4 21.3607 190.938 22.1419 190.586 22.9883C190.234 23.8346 190.059 24.6549 190.059 25.4492ZM230.215 20.4102C229.408 20.4102 228.568 20.6185 227.695 21.0352C226.823 21.4518 226.087 21.9531 225.488 22.5391C224.902 23.125 224.609 23.6784 224.609 24.1992V35.5273H212.852V11.25H224.609V13.8477C225.273 12.8451 226.094 12.0443 227.07 11.4453C228.06 10.8464 229.108 10.4883 230.215 10.3711V20.4102ZM244.844 36.25C243.268 36.25 241.732 36.0026 240.234 35.5078C238.737 35.013 237.383 34.2773 236.172 33.3008C234.961 32.3112 233.997 31.0938 233.281 29.6484C232.565 28.2031 232.207 26.5234 232.207 24.6094C232.207 22.2266 232.63 20.1432 233.477 18.3594C234.336 16.5625 235.495 15.0716 236.953 13.8867C238.411 12.6888 240.065 11.7904 241.914 11.1914C243.763 10.5924 245.684 10.293 247.676 10.293C250.202 10.293 252.253 10.6771 253.828 11.4453C255.417 12.2135 256.582 13.2031 257.324 14.4141C258.066 15.625 258.438 16.901 258.438 18.2422C258.438 19.6875 257.975 21.0872 257.051 22.4414C256.126 23.7956 254.766 24.9089 252.969 25.7812C251.185 26.6536 248.984 27.0898 246.367 27.0898C246.12 27.0898 245.788 27.0898 245.371 27.0898C244.967 27.0768 244.616 27.0638 244.316 27.0508C244.316 27.8711 244.512 28.4635 244.902 28.8281C245.293 29.1927 245.781 29.4206 246.367 29.5117C246.966 29.6029 247.565 29.6484 248.164 29.6484C248.698 29.6484 249.447 29.5638 250.41 29.3945C251.387 29.2122 252.441 28.8867 253.574 28.418C254.707 27.9492 255.781 27.2786 256.797 26.4062L258.008 32.4805C256.471 33.8086 254.525 34.7721 252.168 35.3711C249.824 35.957 247.383 36.25 244.844 36.25ZM244.316 22.5977L248.594 21.6406L248.965 18.6523C248.965 18.5742 248.971 18.5026 248.984 18.4375C248.997 18.3594 249.004 18.2812 249.004 18.2031C249.004 17.0573 248.47 16.4844 247.402 16.4844C246.478 16.5625 245.833 16.8815 245.469 17.4414C245.104 17.9883 244.87 18.7109 244.766 19.6094C244.661 20.4948 244.512 21.4909 244.316 22.5977Z" fill="black"/>
</svg>
